<svg width="513" height="179" xmlns="http://www.w3.org/2000/svg">
 <!-- Created with Method Draw - http://github.com/duopixel/Method-Draw/ -->

 <g>
  <title>background</title>
  <rect fill="#fff" id="canvas_background" height="181" width="515" y="-1" x="-1"/>
  <g display="none" overflow="visible" y="0" x="0" height="100%" width="100%" id="canvasGrid">
   <rect fill="url(#gridpattern)" stroke-width="0" y="0" x="0" height="100%" width="100%"/>
  </g>
 </g>
 <g>
  <title>Layer 1</title>
  <g stroke="null" id="svg_43">
   <path stroke="null" id="svg_5" fill="#F07B52" d="m191.364693,60.44064l-90.548455,-48.362194c-1.09636,-0.585534 -2.53531,-0.585832 -3.63167,0l-90.548834,48.362194c-0.88679,0.473379 -1.418106,1.262045 -1.418106,2.105894l0,99.269358c0,1.405819 1.448045,2.545269 3.233752,2.545269l181.097289,0c1.786086,0 3.233752,-1.139748 3.233752,-2.545269l0,-99.269358c0.000379,-0.843849 -0.530558,-1.632516 -1.417727,-2.105894z"/>
   <path stroke="null" id="svg_6" fill="#E5563C" d="m14.919641,161.815892l0,-99.269358c0,-0.843849 0.531316,-1.632516 1.418106,-2.106193l87.513284,-46.741013l-3.035171,-1.621181c-1.09636,-0.585534 -2.53531,-0.585832 -3.63167,0l-90.548455,48.362194c-0.88679,0.473677 -1.418106,1.262642 -1.418106,2.106193l0,99.269358c0,1.405819 1.448045,2.545269 3.233752,2.545269l9.701634,0c-1.785707,0 -3.233373,-1.139152 -3.233373,-2.545269z"/>
   <path stroke="null" id="svg_7" fill="#74757B" d="m157.210016,72.727907l-116.419604,0c-1.786086,0 -3.233752,1.139748 -3.233752,2.545269l0,86.542418c0,1.405819 1.448045,2.545269 3.233752,2.545269l116.419604,0c1.786086,0 3.233752,-1.139748 3.233752,-2.545269l0,-86.542119c0.000379,-1.405819 -1.447666,-2.545567 -3.233752,-2.545567z"/>
   <path stroke="null" id="svg_8" fill="#606268" d="m40.790411,72.727907c-1.786086,0 -3.233752,1.139748 -3.233752,2.545269l0,86.542418c0,1.405819 1.448045,2.545269 3.233752,2.545269l6.467882,0l0,-91.632955l-6.467882,0z"/>
   <path stroke="null" id="svg_9" fill="#C3C4C6" d="m163.677898,62.546534l-129.35499,0c-1.786086,0 -3.233752,1.139748 -3.233752,2.545269l0,10.181373c0,1.405819 1.448045,2.545269 3.233752,2.545269l129.35499,0c1.786086,0 3.233752,-1.139748 3.233752,-2.545269l0,-10.181373c0,-1.40552 -1.448045,-2.545269 -3.233752,-2.545269z"/>
   <path stroke="null" id="svg_10" fill="#AFB0B4" d="m163.677898,72.727907l-129.35499,0c-1.786086,0 -3.233752,-1.139748 -3.233752,-2.545269l0,5.090836c0,1.405819 1.448045,2.545269 3.233752,2.545269l129.35499,0c1.786086,0 3.233752,-1.139748 3.233752,-2.545269l0,-5.090836c0,1.406117 -1.448045,2.545269 -3.233752,2.545269z"/>
   <g stroke="null" transform="matrix(0.3789700666642161,0,0,0.29828532961923415,-762.6298144829343,-596.8905204807088) " id="svg_11">
    <path stroke="null" id="svg_12" fill="#E5563C" d="m2307.743639,2116.892255l-68.267,0c-4.713,0 -8.533,-3.821 -8.533,-8.533c0,-4.713 3.821,-8.533 8.533,-8.533l68.267,0c4.713,0 8.533,3.821 8.533,8.533c0,4.713 -3.821,8.533 -8.533,8.533z"/>
    <path stroke="null" id="svg_13" fill="#E5563C" d="m2307.743639,2151.026255l-68.267,0c-4.713,0 -8.533,-3.821 -8.533,-8.533s3.821,-8.533 8.533,-8.533l68.267,0c4.713,0 8.533,3.821 8.533,8.533s-3.821,8.533 -8.533,8.533z"/>
    <path stroke="null" id="svg_14" fill="#E5563C" d="m2307.743639,2185.159255l-68.267,0c-4.713,0 -8.533,-3.821 -8.533,-8.533c0,-4.713 3.821,-8.533 8.533,-8.533l68.267,0c4.713,0 8.533,3.821 8.533,8.533c0,4.712 -3.821,8.533 -8.533,8.533z"/>
   </g>
   <g stroke="null" transform="matrix(0.3789700666642161,0,0,0.29828532961923415,-762.6298144829343,-596.8905204807088) " id="svg_15">
    <path stroke="null" id="svg_16" fill="#FDDD85" d="m2222.409639,2313.159255l-102.4,0c-4.713,0 -8.533,3.821 -8.533,8.533l0,102.4c0,4.713 3.821,8.533 8.533,8.533l51.2,8.533l51.2,-8.533c4.713,0 8.533,-3.821 8.533,-8.533l0,-102.4c0.001,-4.712 -3.819,-8.533 -8.533,-8.533z"/>
    <path stroke="null" id="svg_17" fill="#FDDD85" d="m2222.409639,2432.626255l-102.4,0c-4.713,0 -8.533,3.821 -8.533,8.533l0,102.4c0,4.713 3.821,8.533 8.533,8.533l102.4,0c4.713,0 8.533,-3.821 8.533,-8.533l0,-102.4c0.001,-4.712 -3.819,-8.533 -8.533,-8.533z"/>
   </g>
   <path stroke="null" id="svg_18" fill="#FDD042" d="m44.024542,161.815892l0,-30.544418c0,-1.405819 1.448045,-2.545269 3.233752,-2.545269l-6.467882,0c-1.786086,0 -3.233752,1.139748 -3.233752,2.545269l0,30.544418c0,1.405819 1.448045,2.545269 3.233752,2.545269l6.467882,0c-1.786086,0 -3.233752,-1.139152 -3.233752,-2.545269z"/>
   <path stroke="null" id="svg_19" fill="#F2C127" d="m66.661561,128.726205l-12.935385,0l0,12.726642c0,1.405819 1.448045,2.545269 3.233752,2.545269l6.467882,0c1.786086,0 3.233752,-1.139748 3.233752,-2.545269l0,-12.726642z"/>
   <path stroke="null" id="svg_20" fill="#74757B" d="m66.661561,159.270623l-12.935385,0c-1.786086,0 -3.233752,-1.139748 -3.233752,-2.545269s1.448045,-2.545269 3.233752,-2.545269l12.935385,0c1.786086,0 3.233752,1.139748 3.233752,2.545269s-1.447666,2.545269 -3.233752,2.545269z"/>
   <path stroke="null" id="svg_21" fill="#FDD042" d="m44.024542,126.180638l0,-30.544418c0,-1.405819 1.448045,-2.545269 3.233752,-2.545269l-6.467882,0c-1.786086,0 -3.233752,1.139748 -3.233752,2.545269l0,30.544418c0,1.405819 1.448045,2.545269 3.233752,2.545269l6.467882,0c-1.786086,0.000298 -3.233752,-1.139152 -3.233752,-2.545269z"/>
   <path stroke="null" id="svg_22" fill="#F2C127" d="m66.661561,93.090952l-12.935385,0l0,12.72694c0,1.405819 1.448045,2.545269 3.233752,2.545269l6.467882,0c1.786086,0 3.233752,-1.139748 3.233752,-2.545269l0,-12.72694z"/>
   <path stroke="null" id="svg_23" fill="#74757B" d="m66.661561,123.635369l-12.935385,0c-1.786086,0 -3.233752,-1.139748 -3.233752,-2.545269s1.448045,-2.545269 3.233752,-2.545269l12.935385,0c1.786086,0 3.233752,1.139748 3.233752,2.545269s-1.447666,2.545269 -3.233752,2.545269z"/>
   <path stroke="null" id="svg_24" fill="#FDDD85" d="m124.871363,128.726205l-38.806535,0c-1.786086,0 -3.233752,1.139748 -3.233752,2.545269l0,30.544418c0,1.405819 1.448045,2.545269 3.233752,2.545269l38.806535,0c1.786086,0 3.233752,-1.139748 3.233752,-2.545269l0,-30.544418c0,-1.40552 -1.447666,-2.545269 -3.233752,-2.545269z"/>
   <path stroke="null" id="svg_25" fill="#FDD042" d="m89.29858,161.815892l0,-30.544418c0,-1.405819 1.448045,-2.545269 3.233752,-2.545269l-6.467882,0c-1.786086,0 -3.233752,1.139748 -3.233752,2.545269l0,30.544418c0,1.405819 1.448045,2.545269 3.233752,2.545269l6.467882,0c-1.785707,0 -3.233752,-1.139152 -3.233752,-2.545269z"/>
   <path stroke="null" id="svg_26" fill="#F2C127" d="m111.935978,128.726205l-12.935764,0l0,12.726642c0,1.405819 1.448045,2.545269 3.233752,2.545269l6.467882,0c1.786086,0 3.233752,-1.139748 3.233752,-2.545269l0,-12.726642l0.000379,0z"/>
   <path stroke="null" id="svg_27" fill="#74757B" d="m111.935978,159.270623l-12.935764,0c-1.786086,0 -3.233752,-1.139748 -3.233752,-2.545269s1.448045,-2.545269 3.233752,-2.545269l12.935385,0c1.786086,0 3.233752,1.139748 3.233752,2.545269s-1.447666,2.545269 -3.233373,2.545269z"/>
   <g stroke="null" transform="matrix(0.3789700666642161,0,0,0.29828532961923415,-762.6298144829343,-596.8905204807088) " id="svg_28"/>
   <g stroke="null" transform="matrix(0.3789700666642161,0,0,0.29828532961923415,-762.6298144829343,-596.8905204807088) " id="svg_29"/>
   <g stroke="null" transform="matrix(0.3789700666642161,0,0,0.29828532961923415,-762.6298144829343,-596.8905204807088) " id="svg_30"/>
   <g stroke="null" transform="matrix(0.3789700666642161,0,0,0.29828532961923415,-762.6298144829343,-596.8905204807088) " id="svg_31"/>
   <g stroke="null" transform="matrix(0.3789700666642161,0,0,0.29828532961923415,-762.6298144829343,-596.8905204807088) " id="svg_32"/>
   <g stroke="null" transform="matrix(0.3789700666642161,0,0,0.29828532961923415,-762.6298144829343,-596.8905204807088) " id="svg_33"/>
   <g stroke="null" transform="matrix(0.3789700666642161,0,0,0.29828532961923415,-762.6298144829343,-596.8905204807088) " id="svg_34"/>
   <g stroke="null" transform="matrix(0.3789700666642161,0,0,0.29828532961923415,-762.6298144829343,-596.8905204807088) " id="svg_35"/>
   <g stroke="null" transform="matrix(0.3789700666642161,0,0,0.29828532961923415,-762.6298144829343,-596.8905204807088) " id="svg_36"/>
   <g stroke="null" transform="matrix(0.3789700666642161,0,0,0.29828532961923415,-762.6298144829343,-596.8905204807088) " id="svg_37"/>
   <g stroke="null" transform="matrix(0.3789700666642161,0,0,0.29828532961923415,-762.6298144829343,-596.8905204807088) " id="svg_38"/>
   <g stroke="null" transform="matrix(0.3789700666642161,0,0,0.29828532961923415,-762.6298144829343,-596.8905204807088) " id="svg_39"/>
   <g stroke="null" transform="matrix(0.3789700666642161,0,0,0.29828532961923415,-762.6298144829343,-596.8905204807088) " id="svg_40"/>
   <g stroke="null" transform="matrix(0.3789700666642161,0,0,0.29828532961923415,-762.6298144829343,-596.8905204807088) " id="svg_41"/>
   <g stroke="null" transform="matrix(0.3789700666642161,0,0,0.29828532961923415,-762.6298144829343,-596.8905204807088) " id="svg_42"/>
  </g>
  <text stroke="#000" transform="matrix(3.171859502792358,0,0,4,-493.4417558908462,-611.5) " xml:space="preserve" text-anchor="start" font-family="Helvetica, Arial, sans-serif" font-size="24" id="svg_44" y="186" x="224.770913" stroke-width="0" fill="#000000">gzhang</text>
 </g>
</svg>